<?xml version="1.0" standalone="no"?>
<!DOCTYPE svg PUBLIC "-//W3C//DTD SVG 20010904//EN"
 "http://www.w3.org/TR/2001/REC-SVG-20010904/DTD/svg10.dtd">
<svg version="1.0" xmlns="http://www.w3.org/2000/svg"
 width="3543.000000pt" height="2362.000000pt" viewBox="0 0 3543.000000 2362.000000"
 preserveAspectRatio="xMidYMid meet">

<g transform="translate(0.000000,2362.000000) scale(0.100000,-0.100000)"
fill="#ffffff" stroke="none">
<path d="M13078 19477 l-4217 -2812 -1 -5677 0 -5678 8560 0 8560 0 0 5618 0
5619 -1212 750 -1213 750 -3 1416 -2 1417 -870 0 -870 0 0 -480 0 -480 320 0
320 0 0 -515 0 -514 -577 383 c-318 210 -729 483 -913 606 -640 427 -3651
2410 -3658 2409 -4 0 -1905 -1266 -4224 -2812z m8015 -986 l3787 -2543 0
-4739 0 -4739 -7400 0 -7400 0 0 4879 0 4880 3528 2354 c1940 1295 3561 2377
3602 2405 41 29 80 51 86 49 6 -1 1714 -1147 3797 -2546z"/>
<path d="M15950 18610 l0 -590 590 0 590 0 0 590 0 590 -590 0 -590 0 0 -590z"/>
<path d="M17450 18610 l0 -590 590 0 590 0 0 590 0 590 -590 0 -590 0 0 -590z"/>
<path d="M15950 17120 l0 -590 590 0 590 0 0 590 0 590 -590 0 -590 0 0 -590z"/>
<path d="M17450 17120 l0 -590 590 0 590 0 0 590 0 590 -590 0 -590 0 0 -590z"/>
<path d="M17940 11360 l0 -4110 815 0 815 0 0 1274 0 1275 908 4 c864 4 914 5
1060 25 806 114 1450 499 1861 1113 305 454 459 966 478 1584 26 888 -251
1668 -783 2199 -424 425 -998 681 -1647 735 -85 7 -698 11 -1818 11 l-1689 0
0 -4110z m3140 2676 c58 -9 140 -26 182 -37 592 -149 926 -582 956 -1241 25
-533 -88 -900 -362 -1174 -144 -144 -305 -240 -513 -303 -246 -75 -324 -81
-1108 -81 l-665 0 0 1431 0 1431 703 -5 c603 -3 717 -6 807 -21z"/>
<path d="M10990 12761 c0 -2709 1 -2823 36 -3066 108 -757 463 -1397 1014
-1826 199 -156 506 -326 740 -412 550 -203 1215 -266 1850 -177 541 76 1013
265 1419 567 151 113 392 353 504 504 333 447 518 964 567 1583 6 83 10 1098
10 2827 l0 2699 -765 0 -765 0 0 -2547 c0 -1567 -4 -2604 -10 -2692 -59 -864
-529 -1395 -1312 -1480 -601 -66 -1133 131 -1430 530 -188 252 -290 555 -318
944 -6 88 -10 1080 -10 2693 l0 2552 -765 0 -765 0 0 -2699z"/>
<path d="M21864 4906 c-99 -19 -136 -32 -229 -79 -207 -106 -333 -314 -360
-593 -13 -141 33 -348 106 -471 84 -140 239 -254 415 -305 109 -31 321 -31
437 0 227 62 401 221 472 430 28 83 45 195 45 298 l0 74 -365 0 -366 0 3 -142
3 -143 148 -3 c165 -3 163 -1 128 -77 -21 -47 -76 -98 -129 -121 -57 -24 -187
-30 -253 -11 -163 48 -247 169 -257 372 -10 206 69 367 212 434 70 32 176 39
250 16 69 -22 142 -84 177 -149 13 -25 27 -46 32 -46 22 0 337 137 337 147 0
6 -23 45 -50 87 -90 133 -212 221 -370 266 -97 27 -287 35 -386 16z"/>
<path d="M23244 4905 c-154 -33 -273 -136 -326 -283 -27 -74 -30 -244 -5 -310
47 -124 120 -180 336 -257 85 -30 169 -67 188 -81 56 -42 68 -104 33 -161 -65
-107 -277 -89 -434 36 -32 26 -42 29 -51 19 -7 -7 -43 -72 -81 -145 -79 -152
-82 -134 36 -197 188 -100 454 -123 635 -55 80 30 169 93 211 150 98 135 118
340 47 486 -50 102 -170 183 -351 239 -158 48 -202 81 -202 149 0 75 56 115
160 115 66 0 123 -19 189 -62 24 -16 45 -28 46 -26 2 2 34 66 73 144 l71 141
-37 18 c-166 80 -388 113 -538 80z"/>
<path d="M11022 4378 c3 -444 6 -510 21 -563 58 -198 169 -307 367 -361 92
-25 349 -26 440 -1 105 29 186 71 243 129 61 61 98 130 129 243 20 76 22 105
26 568 l4 487 -186 0 -185 0 -3 -472 c-3 -469 -3 -473 -26 -523 -28 -61 -47
-82 -93 -106 -78 -39 -208 -33 -276 14 -18 12 -45 44 -59 71 -36 66 -43 167
-43 644 l-1 372 -181 0 -180 0 3 -502z"/>
<path d="M12360 4725 l0 -155 155 0 155 0 0 -550 0 -550 180 0 180 0 0 550 0
550 150 0 150 0 0 155 0 155 -485 0 -485 0 0 -155z"/>
<path d="M13460 4175 l0 -705 180 0 180 0 0 290 0 290 265 0 265 0 0 -290 0
-290 185 0 185 0 0 705 0 705 -185 0 -185 0 0 -270 0 -270 -265 0 -265 0 0
270 0 270 -180 0 -180 0 0 -705z"/>
<path d="M14800 4875 c0 -3 115 -168 255 -368 l255 -364 0 -336 0 -337 185 0
185 0 0 343 0 342 198 280 c108 154 223 317 255 363 l58 82 -219 0 -220 0
-127 -190 c-71 -104 -131 -187 -135 -185 -3 2 -62 87 -131 189 l-124 185 -217
1 c-120 0 -218 -2 -218 -5z"/>
<path d="M16280 4176 l0 -706 180 0 180 0 0 266 c0 158 4 263 9 260 5 -4 85
-123 177 -266 l167 -260 229 0 229 0 -94 123 c-52 67 -151 196 -221 287 l-126
165 33 11 c112 39 192 106 233 197 39 87 46 233 15 335 -26 87 -83 165 -157
214 -103 69 -118 72 -506 76 l-348 3 0 -705z m509 413 c105 -22 161 -97 146
-195 -14 -93 -97 -144 -234 -144 l-61 0 0 168 c0 93 3 172 7 175 10 10 86 8
142 -4z"/>
<path d="M17520 4175 l0 -705 180 0 180 0 0 425 c0 234 3 425 8 425 4 -1 157
-192 340 -425 l333 -425 184 0 185 0 0 705 0 705 -185 0 -185 0 -2 -427 -3
-427 -335 427 -335 427 -182 0 -183 0 0 -705z"/>
<path d="M19130 4175 l0 -705 180 0 180 0 0 705 0 705 -180 0 -180 0 0 -705z"/>
<path d="M19700 4175 l0 -705 180 0 180 0 0 425 c0 234 3 425 8 425 4 -1 157
-192 340 -425 l333 -425 184 0 185 0 0 705 0 705 -185 0 -185 0 -2 -427 -3
-427 -335 427 -335 427 -182 0 -183 0 0 -705z"/>
<path d="M13200 2416 l0 -706 180 0 180 0 2 233 3 232 185 6 c154 5 194 9 237
26 207 82 294 232 280 481 -11 209 -108 345 -287 404 -61 21 -87 22 -422 26
l-358 3 0 -705z m593 390 c45 -19 73 -53 87 -105 23 -88 -10 -170 -84 -208
-22 -11 -60 -16 -131 -17 l-100 -1 -3 173 -2 172 100 0 c63 0 113 -5 133 -14z"/>
<path d="M14671 3098 c-5 -13 -124 -326 -265 -697 -142 -371 -259 -678 -262
-683 -3 -4 84 -8 193 -8 l198 0 40 118 40 117 265 0 265 0 40 -117 40 -118
196 0 196 0 -267 703 -267 702 -202 3 c-201 2 -201 2 -210 -20z m292 -631 c42
-122 77 -226 77 -230 0 -4 -72 -7 -160 -7 -88 0 -160 3 -160 8 0 13 155 452
160 452 3 0 40 -100 83 -223z"/>
<path d="M15690 2416 l0 -706 180 0 180 0 0 266 c0 158 4 263 9 260 5 -4 85
-123 177 -266 l167 -260 229 0 229 0 -94 123 c-52 67 -151 196 -221 287 l-126
165 33 11 c112 39 192 106 233 197 39 87 46 233 15 335 -26 87 -83 165 -157
214 -103 69 -118 72 -506 76 l-348 3 0 -705z m509 413 c105 -22 161 -97 146
-195 -14 -93 -97 -144 -234 -144 l-61 0 0 168 c0 93 3 172 7 175 10 10 86 8
142 -4z"/>
<path d="M16840 2965 l0 -155 155 0 155 0 0 -550 0 -550 180 0 180 0 0 550 0
550 150 0 150 0 0 155 0 155 -485 0 -485 0 0 -155z"/>
<path d="M17930 2415 l0 -705 180 0 180 0 0 425 c0 234 3 425 8 425 4 -1 157
-192 340 -425 l333 -425 184 0 185 0 0 705 0 705 -185 0 -185 0 -2 -427 -3
-427 -335 427 -335 427 -182 0 -183 0 0 -705z"/>
<path d="M19550 2415 l0 -705 400 0 400 0 0 155 0 155 -220 0 -220 0 0 120 0
120 208 2 207 3 3 152 3 153 -208 2 -208 3 -3 118 -3 117 221 0 220 0 0 155 0
155 -400 0 -400 0 0 -705z"/>
<path d="M20520 2416 l0 -706 180 0 180 0 0 266 c0 158 4 263 9 260 5 -4 85
-123 177 -266 l167 -260 229 0 229 0 -94 123 c-52 67 -151 196 -221 287 l-126
165 33 11 c112 39 192 106 233 197 39 87 46 233 15 335 -26 87 -83 165 -157
214 -103 69 -118 72 -506 76 l-348 3 0 -705z m509 413 c105 -22 161 -97 146
-195 -14 -93 -97 -144 -234 -144 l-61 0 0 168 c0 93 3 172 7 175 10 10 86 8
142 -4z"/>
</g>
</svg>
